<svg id="visual" viewBox="0 0 960 540" width="960" height="540" xmlns="http://www.w3.org/2000/svg" xmlns:xlink="http://www.w3.org/1999/xlink" version="1.1"><path d="M0 273L137 294L274 319L411 265L549 313L686 263L823 311L960 336L960 541L823 541L686 541L549 541L411 541L274 541L137 541L0 541Z" fill="#9ad09a"></path><path d="M0 353L137 373L274 361L411 349L549 381L686 345L823 339L960 351L960 541L823 541L686 541L549 541L411 541L274 541L137 541L0 541Z" fill="#79ad84"></path><path d="M0 367L137 417L274 416L411 426L549 398L686 389L823 393L960 380L960 541L823 541L686 541L549 541L411 541L274 541L137 541L0 541Z" fill="#5b8b6d"></path><path d="M0 468L137 453L274 428L411 465L549 457L686 424L823 441L960 433L960 541L823 541L686 541L549 541L411 541L274 541L137 541L0 541Z" fill="#416a56"></path><path d="M0 486L137 489L274 503L411 480L549 491L686 482L823 479L960 497L960 541L823 541L686 541L549 541L411 541L274 541L137 541L0 541Z" fill="#2a4b3e"></path></svg>